<svg xmlns="http://www.w3.org/2000/svg" version="1.1" xmlns:xlink="http://www.w3.org/1999/xlink" xmlns:svgjs="http://svgjs.dev/svgjs" width="2000" height="1250" viewBox="0 0 2000 1250"><g transform="matrix(1,0,0,1,0,0)"><svg viewBox="0 0 512 320" data-background-color="#ffffff" preserveAspectRatio="xMidYMid meet" height="1250" width="2000" xmlns="http://www.w3.org/2000/svg" xmlns:xlink="http://www.w3.org/1999/xlink"><g id="tight-bounds" transform="matrix(1,0,0,1,0,0)"><svg viewBox="0 0 512 320" height="320" width="512"><g><svg></svg></g><g><svg viewBox="0 0 512 320" height="320" width="512"><g><path transform="translate(256,160) scale(160,160)" d="M-1 0c0-0.552 0.448-1 1-1 0.552 0 1 0.448 1 1 0 0.552-0.448 1-1 1-0.552 0-1-0.448-1-1z" fill="#5ebc67" fill-rule="nonzero" stroke="none" stroke-width="1" stroke-linecap="butt" stroke-linejoin="miter" stroke-miterlimit="10" stroke-dasharray="" stroke-dashoffset="0" font-family="none" font-weight="none" font-size="none" text-anchor="none" style="mix-blend-mode: normal" data-fill-palette-color="tertiary"></path></g><g transform="matrix(1,0,0,1,116,20)"><svg viewBox="0 0 280 280" height="280" width="280"><g><svg viewBox="0 0 280 280" height="280" width="280"><g><svg viewBox="0 0 280 280" height="280" width="280"><g id="textblocktransform"><svg viewBox="0 0 280 280" height="280" width="280" id="textblock"><g><svg viewBox="0 0 280 280" height="280" width="280"><g transform="matrix(1,0,0,1,98.93441992034181,90.50252531694167)"><svg viewBox="0 0 82.13116015931638 98.99494936611666" height="98.99494936611666" width="82.13116015931638"><g id="icon-0"><svg xmlns="http://www.w3.org/2000/svg" xmlns:xlink="http://www.w3.org/1999/xlink" version="1.1" x="0" y="0" viewBox="5.356387831241043 1.3222235572460037 39.2878904755484 47.354776442753995" enable-background="new 0 0 50 50" xml:space="preserve" height="98.99494936611666" width="82.13116015931638" class="icon-xg-0" data-fill-palette-color="quaternary" id="xg-0"><g fill="#ffffff" data-fill-palette-color="quaternary"><path fill-rule="evenodd" clip-rule="evenodd" fill="#ffffff" d="M44.104 11.163c0.779-0.705 0.704-1.413-0.15-2.119-4.348 0.819-31.488 11.599-32.084 13.682C22.578 18.858 33.359 15.03 44.104 11.163z" data-fill-palette-color="quaternary"></path><path fill-rule="evenodd" clip-rule="evenodd" fill="#ffffff" d="M36.52 2.613c-0.484-3.271-4.054 0.521-6.617 2.082-2.642 2.043-4.833 3.531-7.547 5.578-2.566 1.968-13.312 9.478-13.906 11.783L36.52 2.613z" data-fill-palette-color="quaternary"></path><path fill-rule="evenodd" clip-rule="evenodd" fill="#ffffff" d="M18.671 26.926c2.752-1.076 2.381-4.869 7.548-2.936 0.483 0.781 0 1.45-0.632 2.229 3.235-1.261 5.245-2.86 7.66 1.303 1.896-0.631 5.726 0.93 6.023-0.074-1.488-0.816-3.05-1.486-5.354-1.486-0.744-0.707-1.523-1.376-2.305-2.083-1.19-0.372-2.416-0.335-3.641 0.111-1.268-0.818-1.936-1.747-4.092-1.747-2.12 0-2.791 0.929-4.017 1.747-3.271 0-3.568 0.036-5.986 2.229-1.561 0.447-3.159 0.855-4.721 1.303 0.073 0.223 0.111 0.447 0.186 0.631 1.747-0.258 3.495-0.52 5.242-0.779C15.214 24.995 20.048 23.582 18.671 26.926z" data-fill-palette-color="quaternary"></path><path fill-rule="evenodd" clip-rule="evenodd" fill="#ffffff" d="M5.363 28.861c-0.224 8.625 5.279 16.691 11.079 19.816h16.917c0.036-0.113 5.986-5.133 7.434-7.734 1.637-3.014 3.05-7.732 3.05-12.082H5.363z" data-fill-palette-color="quaternary"></path></g></svg></g></svg></g><g id="text-0"><path d="M37.097 89.739v0l-9.95 4.416c-0.369 0.163-0.721 0.179-1.055 0.049-0.328-0.127-0.573-0.376-0.736-0.745v0c-0.151-0.344-0.162-0.683-0.033-1.016 0.127-0.328 0.366-0.577 0.717-0.747v0l9.989-4.433c0.362-0.144 0.704-0.154 1.026-0.029 0.322 0.125 0.568 0.363 0.737 0.714v0c0.163 0.369 0.181 0.718 0.053 1.046-0.13 0.334-0.379 0.583-0.748 0.745zM34.032 99.808v0c-0.75 1.931-1.773 3.577-3.071 4.939-1.292 1.364-2.767 2.404-4.427 3.12-1.656 0.724-3.421 1.1-5.297 1.126-1.876 0.027-3.779-0.335-5.71-1.084v0c-1.906-0.74-3.542-1.753-4.909-3.038-1.367-1.285-2.417-2.754-3.15-4.406-0.742-1.648-1.129-3.411-1.161-5.29-0.039-1.881 0.316-3.787 1.066-5.717v0c0.74-1.906 1.759-3.54 3.056-4.902 1.292-1.364 2.769-2.411 4.434-3.139 1.66-0.737 3.427-1.115 5.301-1.135 1.876-0.027 3.767 0.33 5.673 1.07v0c1.931 0.75 3.579 1.767 4.946 3.052 1.369 1.279 2.418 2.751 3.146 4.415 0.737 1.66 1.122 3.43 1.154 5.308 0.039 1.881-0.312 3.774-1.051 5.681zM31.572 98.853v0c0.593-1.529 0.872-3.054 0.837-4.578-0.038-1.517-0.364-2.951-0.979-4.3-0.609-1.347-1.473-2.544-2.591-3.591-1.111-1.044-2.444-1.867-3.997-2.47v0c-1.529-0.593-3.055-0.88-4.58-0.86-1.531 0.018-2.976 0.319-4.334 0.903-1.365 0.581-2.573 1.419-3.625 2.513-1.054 1.101-1.878 2.415-2.47 3.943v0c-0.603 1.553-0.887 3.092-0.852 4.615 0.038 1.517 0.364 2.951 0.979 4.3 0.609 1.347 1.473 2.544 2.591 3.591 1.111 1.044 2.432 1.863 3.96 2.456v0c1.553 0.603 3.092 0.894 4.617 0.873 1.531-0.018 2.976-0.319 4.334-0.902 1.365-0.581 2.573-1.419 3.625-2.513 1.054-1.101 1.882-2.427 2.485-3.98z" fill="#ffffff" data-fill-palette-color="quaternary"></path><path d="M56.723 63.751v0c-1.141 1.251-2.418 2.129-3.833 2.636-1.419 0.512-2.891 0.598-4.415 0.259-1.524-0.348-3.007-1.18-4.449-2.495v0l-6.857-6.254c-0.28-0.255-0.43-0.568-0.452-0.937-0.012-0.371 0.109-0.696 0.364-0.976v0c0.273-0.299 0.592-0.457 0.958-0.474 0.375-0.017 0.702 0.102 0.982 0.357v0l6.857 6.254c1.094 0.998 2.179 1.61 3.256 1.838 1.077 0.228 2.119 0.145 3.125-0.25 1.002-0.389 1.912-1.032 2.731-1.93v0c0.783-0.858 1.325-1.788 1.627-2.788 0.302-1.001 0.344-1.968 0.127-2.903-0.212-0.93-0.688-1.733-1.429-2.408v0l1.329-1.457c1.059 1.065 1.773 2.273 2.14 3.623 0.363 1.346 0.369 2.713 0.019 4.102-0.345 1.393-1.038 2.66-2.08 3.803zM61.855 57.799v0c-0.273 0.299-0.587 0.457-0.944 0.473-0.351 0.021-0.687-0.114-1.005-0.405v0l-12.396-11.306c-0.299-0.273-0.455-0.585-0.466-0.938-0.016-0.356 0.112-0.684 0.384-0.983v0c0.273-0.299 0.59-0.459 0.951-0.481 0.356-0.026 0.683 0.098 0.983 0.371v0l12.396 11.307c0.319 0.291 0.482 0.615 0.489 0.971 0.012 0.361-0.119 0.691-0.392 0.991z" fill="#ffffff" data-fill-palette-color="quaternary"></path><path d="M82.64 42.819v0c-0.369 0.224-0.723 0.292-1.064 0.205-0.343-0.079-0.627-0.302-0.851-0.671v0l-8.698-14.302c-0.224-0.369-0.292-0.723-0.204-1.064 0.079-0.343 0.302-0.627 0.671-0.851v0c0.346-0.21 0.689-0.272 1.03-0.184 0.343 0.079 0.627 0.302 0.851 0.671v0l8.698 14.302c0.224 0.369 0.292 0.723 0.204 1.064-0.079 0.343-0.291 0.62-0.637 0.83zM70.53 22.983v0c-0.448 0.273-0.932 0.345-1.452 0.219-0.523-0.132-0.926-0.431-1.209-0.896v0c-0.31-0.51-0.388-1.015-0.233-1.513 0.155-0.498 0.457-0.884 0.905-1.157v0c0.425-0.259 0.895-0.342 1.409-0.251 0.514 0.091 0.926 0.392 1.237 0.903v0c0.283 0.465 0.363 0.96 0.239 1.486-0.127 0.52-0.425 0.923-0.896 1.209z" fill="#ffffff" data-fill-palette-color="quaternary"></path><path d="M113.32 31.176v0c-1.814 0.489-3.539 0.504-5.176 0.045-1.643-0.458-3.067-1.301-4.271-2.53-1.205-1.229-2.052-2.75-2.54-4.564v0c-0.496-1.839-0.548-3.586-0.155-5.239 0.385-1.658 1.143-3.089 2.276-4.295 1.132-1.206 2.583-2.048 4.352-2.525v0c1.397-0.377 2.763-0.45 4.097-0.218 1.334 0.231 2.596 0.778 3.784 1.64v0c0.331 0.206 0.503 0.476 0.517 0.81 0.012 0.327-0.11 0.649-0.368 0.965v0c-0.2 0.253-0.465 0.393-0.795 0.421-0.323 0.025-0.637-0.069-0.942-0.282v0c-1.743-1.159-3.624-1.467-5.643-0.923v0c-1.288 0.347-2.339 0.964-3.151 1.85-0.807 0.884-1.334 1.938-1.582 3.16-0.246 1.228-0.181 2.541 0.196 3.938v0c0.372 1.378 0.989 2.532 1.851 3.461 0.867 0.921 1.901 1.553 3.1 1.897 1.206 0.342 2.472 0.334 3.799-0.024v0c0.897-0.242 1.688-0.586 2.372-1.032 0.68-0.438 1.239-0.987 1.68-1.649v0c0.213-0.305 0.467-0.511 0.762-0.618 0.29-0.099 0.59-0.08 0.902 0.056v0c0.343 0.176 0.575 0.423 0.694 0.741 0.118 0.312 0.084 0.617-0.103 0.915v0c-1.264 1.991-3.15 3.325-5.656 4z" fill="#ffffff" data-fill-palette-color="quaternary"></path><path d="M156.433 10.926l-12.716 10.443-1.595-1.9 12.716-10.442c0.297-0.245 0.602-0.354 0.913-0.326 0.305 0.021 0.583 0.18 0.834 0.478v0c0.245 0.297 0.353 0.608 0.325 0.933-0.022 0.318-0.181 0.59-0.477 0.814zM142.512 27.852v0c-0.404-0.019-0.727-0.161-0.966-0.425-0.234-0.257-0.341-0.588-0.322-0.992v0l1.191-25.144c0.019-0.404 0.157-0.724 0.414-0.958 0.264-0.24 0.598-0.35 1.003-0.331v0c0.404 0.019 0.723 0.161 0.956 0.424 0.24 0.257 0.351 0.588 0.332 0.993v0l-1.191 25.144c-0.019 0.404-0.161 0.723-0.424 0.957-0.257 0.24-0.588 0.351-0.993 0.332zM155.71 28.297v0c-0.318 0.251-0.641 0.348-0.971 0.293-0.337-0.049-0.614-0.235-0.831-0.558v0l-7.494-10.144 2.01-1.619 7.549 10.256c0.225 0.296 0.32 0.603 0.285 0.921-0.042 0.324-0.225 0.607-0.548 0.851z" fill="#ffffff" data-fill-palette-color="quaternary"></path><path d="M186.6 37.738l-8.467-3.34c-0.42-0.166-0.723-0.421-0.907-0.765-0.182-0.336-0.193-0.704-0.035-1.105v0l9.208-23.342c0.149-0.377 0.392-0.641 0.73-0.793 0.336-0.146 0.692-0.144 1.069 0.004v0l8.077 3.186c1.328 0.524 2.418 1.278 3.271 2.264 0.844 0.99 1.392 2.098 1.643 3.325 0.247 1.218 0.118 2.469-0.389 3.753v0c-0.473 1.198-1.213 2.133-2.221 2.807-1.01 0.679-2.133 1.057-3.369 1.132v0c1.332 0.982 2.236 2.202 2.71 3.66 0.47 1.449 0.373 3.016-0.292 4.702v0c-0.594 1.507-1.461 2.699-2.599 3.577-1.139 0.878-2.439 1.407-3.902 1.586-1.469 0.177-2.978-0.04-4.527-0.651zM184.24 22.228l-3.994 10.124 7.336 2.894c1.068 0.421 2.093 0.583 3.074 0.485 0.987-0.096 1.865-0.442 2.636-1.037 0.768-0.589 1.361-1.415 1.78-2.477v0c0.395-1 0.507-1.962 0.335-2.886-0.171-0.924-0.586-1.751-1.247-2.483-0.654-0.729-1.516-1.304-2.584-1.726v0zM188.512 11.4l-3.289 8.337 6.78 2.674c1.328 0.524 2.569 0.578 3.725 0.164 1.162-0.412 2.009-1.295 2.543-2.647v0c0.524-1.328 0.489-2.505-0.106-3.531-0.588-1.024-1.546-1.798-2.873-2.322v0z" fill="#ffffff" data-fill-palette-color="quaternary"></path><path d="M213.559 53.989v0c-0.341-0.265-0.531-0.572-0.57-0.922-0.048-0.349 0.06-0.693 0.325-1.034v0l10.271-13.217c0.265-0.341 0.572-0.531 0.922-0.569 0.349-0.048 0.693 0.06 1.034 0.324v0c0.32 0.248 0.499 0.548 0.538 0.898 0.048 0.349-0.06 0.693-0.324 1.034v0l-10.272 13.216c-0.265 0.341-0.572 0.531-0.922 0.57-0.349 0.048-0.683-0.052-1.002-0.3zM227.789 35.614v0c-0.414-0.322-0.654-0.748-0.721-1.279-0.062-0.536 0.073-1.019 0.407-1.449v0c0.367-0.472 0.81-0.724 1.332-0.756 0.521-0.032 0.989 0.113 1.402 0.434v0c0.393 0.306 0.638 0.715 0.736 1.228 0.097 0.513-0.037 1.005-0.404 1.477v0c-0.334 0.43-0.769 0.681-1.303 0.752-0.531 0.067-1.014-0.069-1.449-0.407z" fill="#ffffff" data-fill-palette-color="quaternary"></path><path d="M235.576 78.18l-0.448-0.597c-0.758-1.008-1.196-2.087-1.314-3.236-0.123-1.146 0.058-2.258 0.543-3.337 0.484-1.079 1.26-2.019 2.326-2.821v0l13.948-10.494c0.324-0.243 0.665-0.342 1.023-0.296 0.364 0.042 0.665 0.222 0.905 0.54v0c0.243 0.324 0.339 0.671 0.287 1.043-0.051 0.363-0.239 0.666-0.563 0.909v0l-13.948 10.494c-0.971 0.73-1.548 1.613-1.733 2.649-0.194 1.035 0.047 2 0.722 2.897v0l0.58 0.772c0.227 0.302 0.31 0.627 0.247 0.973-0.069 0.351-0.265 0.648-0.588 0.891v0c-0.324 0.243-0.669 0.325-1.038 0.245-0.373-0.076-0.689-0.287-0.948-0.632zM248.374 67.879l-5.471-7.273c-0.216-0.286-0.303-0.59-0.263-0.912 0.037-0.327 0.188-0.59 0.453-0.789v0c0.286-0.216 0.592-0.296 0.916-0.24 0.32 0.05 0.588 0.218 0.803 0.504v0l5.472 7.273c0.216 0.286 0.305 0.593 0.268 0.92-0.037 0.327-0.198 0.598-0.485 0.813v0c-0.265 0.2-0.56 0.272-0.884 0.216-0.324-0.055-0.594-0.226-0.809-0.512z" fill="#ffffff" data-fill-palette-color="quaternary"></path><path d="M248.895 105.67v0c-0.678-1.809-0.883-3.557-0.615-5.245 0.274-1.691 0.962-3.193 2.065-4.507 1.109-1.316 2.568-2.313 4.377-2.99v0c1.828-0.685 3.577-0.915 5.249-0.691 1.672 0.224 3.155 0.842 4.448 1.853 1.296 1.017 2.265 2.384 2.908 4.1v0c0.634 1.691 0.801 3.312 0.503 4.862-0.292 1.548-0.989 2.923-2.092 4.123-1.103 1.2-2.521 2.125-4.256 2.775v0c-0.361 0.135-0.688 0.13-0.983-0.015-0.295-0.145-0.509-0.394-0.642-0.748v0l-5.325-14.21 2.145-0.804 5.422 14.471-1.582-1.044c1.302-0.46 2.374-1.127 3.216-2.003 0.842-0.875 1.383-1.872 1.623-2.99 0.247-1.12 0.136-2.305-0.332-3.554v0c-0.475-1.268-1.195-2.271-2.159-3.009-0.962-0.731-2.069-1.16-3.321-1.286-1.259-0.124-2.566 0.068-3.921 0.576v0c-1.361 0.51-2.454 1.256-3.277 2.237-0.829 0.984-1.353 2.102-1.571 3.354-0.219 1.252-0.078 2.546 0.423 3.882v0c0.3 0.802 0.743 1.558 1.328 2.267 0.585 0.71 1.179 1.228 1.784 1.554v0c0.292 0.174 0.503 0.414 0.631 0.721 0.129 0.306 0.145 0.605 0.049 0.896v0c-0.158 0.392-0.39 0.653-0.696 0.782-0.308 0.123-0.625 0.092-0.949-0.091v0c-0.896-0.501-1.766-1.242-2.609-2.224-0.837-0.984-1.45-1.998-1.841-3.042z" fill="#ffffff" data-fill-palette-color="quaternary"></path><path d="M19.752 205.608v0l4.397-10.104c0.168-0.372 0.42-0.623 0.753-0.754 0.34-0.133 0.695-0.118 1.065 0.045v0c0.344 0.151 0.582 0.396 0.715 0.736 0.13 0.334 0.125 0.685-0.017 1.054v0l-4.423 10.146c-0.176 0.353-0.424 0.593-0.746 0.719-0.328 0.128-0.673 0.12-1.035-0.024v0c-0.378-0.166-0.632-0.416-0.762-0.75-0.133-0.34-0.115-0.696 0.053-1.068zM15.147 195.989v0c-0.762-1.954-1.125-3.882-1.091-5.784 0.035-1.902 0.425-3.689 1.17-5.362 0.742-1.679 1.803-3.168 3.184-4.469 1.381-1.301 3.049-2.332 5.003-3.094v0c1.93-0.752 3.843-1.117 5.74-1.095 1.897 0.023 3.687 0.401 5.369 1.134 1.68 0.727 3.177 1.779 4.49 3.155 1.313 1.376 2.351 3.041 3.113 4.996v0c0.752 1.93 1.111 3.845 1.076 5.747-0.035 1.902-0.421 3.698-1.159 5.39-0.74 1.685-1.8 3.178-3.18 4.478-1.381 1.301-3.036 2.327-4.966 3.08v0c-1.954 0.762-3.88 1.132-5.777 1.109-1.897-0.023-3.688-0.404-5.373-1.144-1.687-0.746-3.187-1.807-4.501-3.182-1.313-1.376-2.346-3.029-3.098-4.959zM17.633 195.02v0c0.605 1.552 1.441 2.883 2.508 3.992 1.066 1.109 2.291 1.957 3.674 2.543 1.383 0.587 2.847 0.888 4.393 0.905 1.546 0.017 3.104-0.28 4.675-0.893v0c1.546-0.603 2.882-1.434 4.008-2.492 1.126-1.059 2-2.272 2.621-3.641 0.621-1.368 0.949-2.821 0.983-4.359 0.034-1.538-0.251-3.083-0.857-4.635v0c-0.613-1.571-1.452-2.911-2.518-4.02-1.069-1.115-2.295-1.966-3.678-2.553-1.383-0.587-2.847-0.888-4.393-0.905-1.546-0.017-3.092 0.276-4.638 0.878v0c-1.571 0.613-2.919 1.448-4.045 2.507-1.126 1.059-2 2.272-2.621 3.641-0.621 1.368-0.947 2.824-0.979 4.368-0.034 1.538 0.255 3.093 0.867 4.664z" fill="#ffffff" data-fill-palette-color="quaternary"></path><path d="M42.094 238.226v0c-1.157-1.263-1.928-2.631-2.315-4.104-0.386-1.473-0.337-2.963 0.147-4.469 0.48-1.511 1.449-2.934 2.908-4.27v0l6.932-6.349c0.284-0.26 0.613-0.382 0.989-0.365 0.375 0.016 0.693 0.167 0.952 0.45v0c0.278 0.304 0.409 0.643 0.393 1.018-0.016 0.375-0.167 0.693-0.451 0.953v0l-6.932 6.349c-1.101 1.009-1.817 2.046-2.145 3.112-0.324 1.071-0.336 2.13-0.034 3.177 0.302 1.047 0.867 2.023 1.697 2.929v0c0.798 0.871 1.687 1.502 2.665 1.893 0.983 0.396 1.955 0.528 2.915 0.396 0.964-0.127 1.818-0.531 2.562-1.212v0l1.345 1.468c-1.165 0.968-2.447 1.575-3.843 1.819-1.392 0.249-2.771 0.134-4.136-0.344-1.374-0.479-2.591-1.295-3.649-2.451zM47.629 243.945v0c-0.278-0.304-0.409-0.633-0.394-0.989 0.016-0.356 0.185-0.683 0.508-0.979v0l12.528-11.473c0.304-0.278 0.633-0.409 0.99-0.394 0.356 0.016 0.674 0.175 0.951 0.479v0c0.278 0.304 0.414 0.638 0.407 1.005-0.007 0.366-0.162 0.688-0.465 0.966v0l-12.528 11.473c-0.323 0.296-0.667 0.431-1.032 0.406-0.365-0.025-0.687-0.19-0.965-0.494z" fill="#ffffff" data-fill-palette-color="quaternary"></path><path d="M72.634 262.315v0c-0.375-0.227-0.604-0.514-0.689-0.86-0.085-0.346-0.014-0.707 0.213-1.082v0l8.79-14.501c0.224-0.369 0.509-0.596 0.855-0.681 0.346-0.085 0.707-0.014 1.082 0.214v0c0.346 0.21 0.562 0.488 0.647 0.834 0.091 0.35 0.024 0.709-0.2 1.078v0l-8.79 14.502c-0.227 0.375-0.517 0.603-0.869 0.684-0.346 0.085-0.693 0.022-1.039-0.188zM84.802 242.165v0c-0.454-0.275-0.746-0.677-0.876-1.206-0.13-0.529-0.05-1.032 0.24-1.509v0c0.31-0.511 0.726-0.814 1.249-0.907 0.523-0.094 1.012-0.004 1.465 0.271v0c0.431 0.262 0.726 0.646 0.885 1.153 0.158 0.507 0.082 1.016-0.228 1.527v0c-0.289 0.477-0.698 0.78-1.226 0.91-0.535 0.126-1.037 0.047-1.509-0.239z" fill="#ffffff" data-fill-palette-color="quaternary"></path><path d="M108.27 276.402v0c-1.84-0.495-3.361-1.357-4.563-2.587-1.207-1.239-2.026-2.703-2.459-4.394-0.428-1.682-0.394-3.443 0.101-5.283v0c0.501-1.866 1.344-3.426 2.526-4.682 1.181-1.25 2.576-2.116 4.184-2.598 1.599-0.477 3.297-0.475 5.091 0.007v0c1.417 0.381 2.65 1.011 3.699 1.891 1.049 0.88 1.879 2 2.489 3.361v0c0.181 0.351 0.193 0.674 0.038 0.969-0.155 0.295-0.427 0.514-0.816 0.657v0c-0.306 0.117-0.609 0.104-0.907-0.038-0.299-0.142-0.525-0.385-0.681-0.729v0c-0.941-1.896-2.434-3.118-4.478-3.668v0c-1.308-0.352-2.54-0.346-3.696 0.017-1.156 0.363-2.156 1.015-3.001 1.957-0.84 0.95-1.451 2.136-1.833 3.559v0c-0.376 1.398-0.418 2.72-0.128 3.966 0.282 1.251 0.865 2.332 1.748 3.244 0.876 0.909 1.99 1.545 3.343 1.909v0c0.904 0.243 1.767 0.344 2.588 0.304 0.822-0.04 1.594-0.238 2.315-0.595v0c0.344-0.155 0.67-0.205 0.979-0.149 0.308 0.055 0.562 0.223 0.761 0.503v0c0.213 0.332 0.292 0.666 0.236 1.002-0.049 0.337-0.233 0.587-0.552 0.749v0c-2.118 1.101-4.446 1.311-6.984 0.628z" fill="#ffffff" data-fill-palette-color="quaternary"></path><path d="M155.883 261.589l-11.808 11.751-1.789-1.758 11.818-11.752c0.272-0.279 0.568-0.419 0.887-0.421 0.312-0.002 0.608 0.134 0.886 0.406v0c0.279 0.279 0.42 0.581 0.423 0.907 0.002 0.326-0.137 0.615-0.417 0.867zM143.487 279.998v0c-0.411 0.02-0.749-0.09-1.012-0.33-0.264-0.24-0.406-0.565-0.426-0.977v0l-1.221-25.462c-0.02-0.411 0.09-0.749 0.33-1.012 0.24-0.264 0.565-0.406 0.976-0.426v0c0.411-0.02 0.749 0.09 1.013 0.33 0.264 0.24 0.406 0.565 0.426 0.977v0l1.221 25.461c0.02 0.411-0.09 0.749-0.33 1.013-0.24 0.264-0.565 0.406-0.977 0.426zM156.836 279.178v0c-0.299 0.28-0.618 0.408-0.958 0.385-0.34-0.017-0.636-0.175-0.891-0.476v0l-8.53-9.51 1.866-1.834 8.615 9.616c0.253 0.28 0.374 0.584 0.363 0.91-0.004 0.326-0.159 0.629-0.465 0.909z" fill="#ffffff" data-fill-palette-color="quaternary"></path><path d="M193.944 268.702l-8.575 3.389c-0.426 0.168-0.824 0.19-1.195 0.065-0.377-0.122-0.646-0.387-0.806-0.794v0l-9.341-23.633c-0.151-0.383-0.152-0.746-0.003-1.091 0.149-0.345 0.415-0.592 0.799-0.743v0l8.167-3.228c1.346-0.532 2.675-0.726 3.989-0.581 1.311 0.139 2.483 0.575 3.515 1.309 1.026 0.736 1.796 1.753 2.308 3.049v0c0.478 1.21 0.58 2.415 0.305 3.616-0.277 1.195-0.846 2.247-1.706 3.159v0c1.661-0.185 3.17 0.093 4.526 0.834 1.359 0.748 2.375 1.973 3.049 3.677v0c0.603 1.525 0.786 3.009 0.549 4.451-0.23 1.44-0.826 2.732-1.787 3.876-0.961 1.144-2.226 2.025-3.794 2.645zM181.457 258.862l4.056 10.26 7.436-2.939c1.074-0.425 1.944-1.015 2.608-1.77 0.659-0.753 1.068-1.614 1.228-2.583 0.157-0.976 0.023-2.001-0.402-3.075v0c-0.398-1.006-0.98-1.793-1.747-2.361-0.767-0.568-1.646-0.895-2.636-0.982-0.997-0.084-2.032 0.086-3.107 0.511v0zM177.124 247.897l3.338 8.446 6.862-2.712c1.346-0.532 2.306-1.354 2.879-2.466 0.57-1.103 0.585-2.34 0.043-3.711v0c-0.532-1.346-1.37-2.192-2.513-2.54-1.152-0.351-2.401-0.261-3.747 0.271v0z" fill="#ffffff" data-fill-palette-color="quaternary"></path><path d="M225.659 249.721v0c-0.346 0.269-0.696 0.381-1.05 0.337-0.354-0.044-0.665-0.239-0.934-0.586v0l-10.407-13.388c-0.265-0.341-0.375-0.688-0.331-1.042 0.044-0.354 0.239-0.665 0.585-0.934v0c0.32-0.249 0.657-0.351 1.011-0.306 0.359 0.04 0.671 0.231 0.936 0.571v0l10.407 13.388c0.269 0.346 0.379 0.698 0.329 1.056-0.044 0.354-0.226 0.655-0.546 0.904zM211.181 231.161v0c-0.419 0.326-0.899 0.455-1.439 0.387-0.54-0.068-0.982-0.322-1.324-0.762v0c-0.367-0.472-0.501-0.969-0.402-1.491 0.099-0.522 0.357-0.946 0.777-1.272v0c0.398-0.31 0.863-0.448 1.393-0.414 0.53 0.033 0.979 0.286 1.345 0.757v0c0.342 0.44 0.479 0.931 0.412 1.471-0.073 0.544-0.327 0.986-0.762 1.324z" fill="#ffffff" data-fill-palette-color="quaternary"></path><path d="M251.26 221.888l-0.455 0.604c-0.771 1.023-1.697 1.751-2.779 2.182-1.086 0.437-2.221 0.57-3.406 0.401-1.18-0.166-2.311-0.656-3.393-1.472v0l-14.123-10.642c-0.323-0.244-0.515-0.546-0.575-0.908-0.06-0.361 0.033-0.706 0.281-1.035v0c0.244-0.323 0.551-0.511 0.923-0.563 0.372-0.052 0.719 0.043 1.043 0.287v0l14.123 10.643c0.981 0.739 2.002 1.055 3.063 0.949 1.061-0.106 1.933-0.613 2.616-1.52v0l0.588-0.779c0.232-0.307 0.526-0.477 0.881-0.508 0.36-0.036 0.704 0.069 1.033 0.317v0c0.329 0.248 0.506 0.564 0.531 0.949 0.03 0.38-0.087 0.745-0.351 1.095zM237.656 212.31l-5.549 7.363c-0.22 0.292-0.494 0.463-0.823 0.514-0.324 0.055-0.621-0.019-0.892-0.223v0c-0.292-0.22-0.456-0.493-0.492-0.819-0.042-0.331 0.047-0.642 0.267-0.934v0l5.549-7.364c0.216-0.286 0.488-0.455 0.818-0.506 0.328-0.06 0.638 0.019 0.929 0.24v0c0.27 0.204 0.422 0.472 0.455 0.803 0.042 0.331-0.045 0.639-0.261 0.926z" fill="#ffffff" data-fill-palette-color="quaternary"></path><path d="M267.578 189.71v0c-0.687 1.827-1.697 3.294-3.029 4.403-1.332 1.109-2.857 1.798-4.575 2.066-1.722 0.26-3.496 0.046-5.323-0.64v0c-1.851-0.697-3.341-1.686-4.468-2.969-1.125-1.289-1.845-2.751-2.159-4.386-0.307-1.633-0.134-3.32 0.521-5.06v0c0.645-1.715 1.596-3.063 2.851-4.045 1.256-0.982 2.705-1.564 4.349-1.747 1.635-0.179 3.331 0.062 5.09 0.724v0c0.36 0.136 0.607 0.356 0.74 0.661 0.127 0.303 0.123 0.635-0.012 0.996v0l-5.414 14.389-2.162-0.813 5.515-14.66 0.506 1.85c-1.304-0.512-2.568-0.714-3.792-0.608-1.225 0.107-2.301 0.507-3.229 1.201-0.934 0.691-1.638 1.668-2.112 2.928v0c-0.484 1.286-0.604 2.528-0.36 3.727 0.244 1.198 0.803 2.267 1.677 3.206 0.87 0.93 1.995 1.655 3.374 2.173v0c1.373 0.517 2.703 0.676 3.99 0.48 1.287-0.197 2.43-0.699 3.429-1.508 0.999-0.809 1.754-1.89 2.263-3.244v0c0.306-0.814 0.472-1.688 0.497-2.622 0.029-0.925-0.077-1.717-0.319-2.375v0c-0.112-0.326-0.114-0.649-0.007-0.971 0.113-0.319 0.302-0.557 0.566-0.713v0c0.377-0.192 0.726-0.234 1.048-0.127 0.322 0.107 0.543 0.339 0.664 0.696v0c0.353 0.984 0.522 2.129 0.505 3.436-0.016 1.306-0.224 2.49-0.624 3.552z" fill="#ffffff" data-fill-palette-color="quaternary"></path><path d="M3.747 144.112c0-5.958 4.83-10.787 10.788-10.787 5.958 0 10.787 4.83 10.787 10.787 0 5.958-4.83 10.787-10.787 10.788-5.958 0-10.787-4.83-10.788-10.788z" fill="#ffffff" data-fill-palette-color="quaternary"></path><path d="M254.678 144.112c0-5.958 4.83-10.787 10.787-10.787 5.958 0 10.787 4.83 10.788 10.787 0 5.958-4.83 10.787-10.788 10.788-5.958 0-10.787-4.83-10.787-10.788z" fill="#ffffff" data-fill-palette-color="quaternary"></path></g><g id="text-1"></g></svg></g></svg></g></svg></g><g></g></svg></g></svg></g></svg></g><defs></defs></svg><rect width="512" height="320" fill="none" stroke="none" visibility="hidden"></rect></g></svg></g></svg>